<svg width="89" height="83" viewBox="0 0 89 83" fill="none" xmlns="http://www.w3.org/2000/svg">
<path d="M5.11328 30.875C5.73438 30.875 6.20898 30.6699 6.53711 30.2598C6.87695 29.8496 7.12305 29.2285 7.27539 28.3965C7.43945 27.5645 7.5332 26.5098 7.55664 25.2324C7.58008 23.9551 7.5918 22.4551 7.5918 20.7324C7.5918 19.1621 7.58008 17.5859 7.55664 16.0039C7.54492 14.4219 7.46289 12.7578 7.31055 11.0117C7.26367 10.4609 7.08789 9.99219 6.7832 9.60547C6.49023 9.20703 6.08008 8.92578 5.55273 8.76172V8.67383H11.9863V8.76172C10.7793 9.14844 10.1758 9.99805 10.1758 11.3105C10.1406 12.5059 10.1113 13.7012 10.0879 14.8965C10.0762 15.4121 10.0645 15.9512 10.0527 16.5137C10.0527 17.0645 10.0469 17.6211 10.0352 18.1836C10.0352 18.7461 10.0293 19.3027 10.0176 19.8535C10.0176 20.3926 10.0176 20.9023 10.0176 21.3828C10.0176 22.332 10.0059 23.2871 9.98242 24.248C9.9707 25.1973 9.91211 26.1113 9.80664 26.9902C9.70117 27.8574 9.54297 28.666 9.33203 29.416C9.13281 30.166 8.83984 30.8223 8.45312 31.3848C8.06641 31.9355 7.58008 32.3691 6.99414 32.6855C6.41992 33.002 5.71094 33.1602 4.86719 33.1602C4.24609 33.1602 3.69531 33.0723 3.21484 32.8965C2.73438 32.7207 2.33008 32.4805 2.00195 32.1758C1.67383 31.8828 1.42773 31.543 1.26367 31.1562C1.09961 30.7578 1.01758 30.3359 1.01758 29.8906C1.01758 29.5156 1.07617 29.1406 1.19336 28.7656C1.32227 28.3789 1.52148 27.998 1.79102 27.623L4.99023 26.7266L5.04297 26.8145C4.55078 27.1191 4.19336 27.459 3.9707 27.834C3.74805 28.209 3.63672 28.6016 3.63672 29.0117C3.63672 29.2344 3.67188 29.457 3.74219 29.6797C3.8125 29.9023 3.91211 30.1016 4.04102 30.2773C4.18164 30.4531 4.33984 30.5996 4.51562 30.7168C4.70312 30.8223 4.90234 30.875 5.11328 30.875ZM15.6777 23.5273C15.6777 25.8828 15.9121 27.6582 16.3809 28.8535C16.8496 30.0488 17.5059 30.6465 18.3496 30.6465C19.2051 30.6465 19.8438 30.0488 20.2656 28.8535C20.6992 27.6582 20.916 25.8828 20.916 23.5273C20.916 21.1719 20.6992 19.4023 20.2656 18.2188C19.8438 17.0352 19.2051 16.4434 18.3496 16.4434C17.5059 16.4434 16.8496 17.0352 16.3809 18.2188C15.9121 19.4023 15.6777 21.1719 15.6777 23.5273ZM13.041 23.5273C13.041 22.0859 13.1758 20.8086 13.4453 19.6953C13.7266 18.582 14.1016 17.6445 14.5703 16.8828C15.0508 16.1211 15.6133 15.5469 16.2578 15.1602C16.9023 14.7617 17.5996 14.5625 18.3496 14.5625C19.0645 14.5625 19.7383 14.7617 20.3711 15.1602C21.0039 15.5469 21.5547 16.1211 22.0234 16.8828C22.4922 17.6445 22.8613 18.582 23.1309 19.6953C23.4121 20.8086 23.5527 22.0859 23.5527 23.5273C23.5527 24.9688 23.4121 26.2461 23.1309 27.3594C22.8613 28.4727 22.4922 29.4102 22.0234 30.1719C21.5547 30.9336 21.0039 31.5137 20.3711 31.9121C19.7383 32.3105 19.0645 32.5098 18.3496 32.5098C17.5996 32.5098 16.9023 32.3105 16.2578 31.9121C15.6133 31.5137 15.0508 30.9336 14.5703 30.1719C14.1016 29.4102 13.7266 28.4727 13.4453 27.3594C13.1758 26.2461 13.041 24.9688 13.041 23.5273ZM32.1836 26.0059L36.0332 26.3574C36.0332 27.4121 35.8809 28.3262 35.5762 29.0996C35.2832 29.8613 34.9023 30.5 34.4336 31.0156C33.9766 31.5195 33.4668 31.8945 32.9043 32.1406C32.3418 32.3867 31.791 32.5098 31.252 32.5098C30.4785 32.5098 29.7578 32.3105 29.0898 31.9121C28.4219 31.5137 27.8418 30.9336 27.3496 30.1719C26.8574 29.4102 26.4707 28.4727 26.1895 27.3594C25.9082 26.2461 25.7676 24.9688 25.7676 23.5273C25.7676 22.0859 25.9082 20.8086 26.1895 19.6953C26.4707 18.582 26.8574 17.6445 27.3496 16.8828C27.8418 16.1211 28.4219 15.541 29.0898 15.1426C29.7578 14.7441 30.4785 14.5449 31.252 14.5449C31.8965 14.5449 32.4883 14.7207 33.0273 15.0723C33.5781 15.4121 34.0586 15.9219 34.4688 16.6016C34.8789 17.2695 35.207 18.1074 35.4531 19.1152C35.7109 20.1113 35.8691 21.2598 35.9277 22.5605L28.4922 25.1621C28.6445 27.084 28.9844 28.4844 29.5117 29.3633C30.0391 30.2305 30.707 30.6641 31.5156 30.6641C31.9023 30.6641 32.2246 30.5938 32.4824 30.4531C32.752 30.3008 32.9688 30.1074 33.1328 29.873C33.3086 29.627 33.4316 29.3574 33.502 29.0645C33.584 28.7598 33.625 28.4492 33.625 28.1328C33.625 27.7578 33.502 27.3887 33.2559 27.0254C33.0215 26.6621 32.6582 26.3516 32.166 26.0938L32.1836 26.0059ZM28.4043 23.5977C28.7441 23.4688 29.166 23.3047 29.6699 23.1055C30.1738 22.9062 30.8066 22.6309 31.5684 22.2793C32.002 22.0801 32.377 21.8809 32.6934 21.6816C33.0098 21.4824 33.291 21.3125 33.5371 21.1719C33.4199 19.543 33.168 18.3418 32.7812 17.5684C32.4062 16.7949 31.8965 16.4082 31.252 16.4082C30.3496 16.4082 29.6465 17.0059 29.1426 18.2012C28.6504 19.3965 28.4043 21.1719 28.4043 23.5273V23.5977ZM46.9141 0.898438C47.9922 0.898438 49.0078 1.17969 49.9609 1.74219C50.9141 2.28906 51.75 3.10937 52.4688 4.20312C53.1875 5.28125 53.75 6.625 54.1562 8.23438C54.5781 9.82812 54.7891 11.6641 54.7891 13.7422C54.7891 16.5547 54.5078 19.0938 53.9453 21.3594C53.3828 23.6094 52.6328 25.5234 51.6953 27.1016C50.7734 28.6797 49.7031 29.8906 48.4844 30.7344C47.2812 31.5781 46.0312 32 44.7344 32H38.125V31.8828C38.9219 31.6172 39.4922 31.1797 39.8359 30.5703C40.1953 29.9609 40.3984 29.2422 40.4453 28.4141C40.5703 25.8984 40.6641 23.5625 40.7266 21.4062C40.7891 19.25 40.8203 17.1484 40.8203 15.1016C40.8203 13.2734 40.8047 11.4609 40.7734 9.66406C40.7422 7.86719 40.6406 5.98438 40.4688 4.01562C40.3906 3.28125 40.1562 2.65625 39.7656 2.14062C39.3906 1.60937 38.8438 1.23437 38.125 1.01562V0.898438H46.9141ZM44.1719 29.4219C45 29.4219 45.75 29.2109 46.4219 28.7891C47.0938 28.3672 47.6953 27.7891 48.2266 27.0547C48.7578 26.3203 49.2109 25.4609 49.5859 24.4766C49.9766 23.4766 50.2969 22.3984 50.5469 21.2422C50.7969 20.0859 50.9844 18.875 51.1094 17.6094C51.2344 16.3438 51.2969 15.0781 51.2969 13.8125C51.2969 12.5781 51.1953 11.3516 50.9922 10.1328C50.8047 8.89844 50.5078 7.78906 50.1016 6.80469C49.7109 5.82031 49.2031 5.02344 48.5781 4.41406C47.9531 3.80469 47.2188 3.5 46.375 3.5L44.1719 3.47656C44.125 4.96094 44.0859 6.44531 44.0547 7.92969C44.0391 8.57031 44.0234 9.23438 44.0078 9.92188C44.0078 10.6094 44 11.3047 43.9844 12.0078C43.9844 12.7109 43.9766 13.3984 43.9609 14.0703C43.9609 14.7422 43.9609 15.375 43.9609 15.9688C43.9609 18.0938 43.9922 20.1953 44.0547 22.2734C44.1328 24.3516 44.1719 26.4297 44.1719 28.5078V29.4219ZM66.4375 24.0078L71.5703 24.4766C71.5703 25.8828 71.3672 27.1016 70.9609 28.1328C70.5703 29.1484 70.0625 30 69.4375 30.6875C68.8281 31.3594 68.1484 31.8594 67.3984 32.1875C66.6484 32.5156 65.9141 32.6797 65.1953 32.6797C64.1641 32.6797 63.2031 32.4141 62.3125 31.8828C61.4219 31.3516 60.6484 30.5781 59.9922 29.5625C59.3359 28.5469 58.8203 27.2969 58.4453 25.8125C58.0703 24.3281 57.8828 22.625 57.8828 20.7031C57.8828 18.7812 58.0703 17.0781 58.4453 15.5938C58.8203 14.1094 59.3359 12.8594 59.9922 11.8438C60.6484 10.8281 61.4219 10.0547 62.3125 9.52344C63.2031 8.99219 64.1641 8.72656 65.1953 8.72656C66.0547 8.72656 66.8438 8.96094 67.5625 9.42969C68.2969 9.88281 68.9375 10.5625 69.4844 11.4688C70.0312 12.3594 70.4688 13.4766 70.7969 14.8203C71.1406 16.1484 71.3516 17.6797 71.4297 19.4141L61.5156 22.8828C61.7188 25.4453 62.1719 27.3125 62.875 28.4844C63.5781 29.6406 64.4688 30.2188 65.5469 30.2188C66.0625 30.2188 66.4922 30.125 66.8359 29.9375C67.1953 29.7344 67.4844 29.4766 67.7031 29.1641C67.9375 28.8359 68.1016 28.4766 68.1953 28.0859C68.3047 27.6797 68.3594 27.2656 68.3594 26.8438C68.3594 26.3438 68.1953 25.8516 67.8672 25.3672C67.5547 24.8828 67.0703 24.4688 66.4141 24.125L66.4375 24.0078ZM61.3984 20.7969C61.8516 20.625 62.4141 20.4062 63.0859 20.1406C63.7578 19.875 64.6016 19.5078 65.6172 19.0391C66.1953 18.7734 66.6953 18.5078 67.1172 18.2422C67.5391 17.9766 67.9141 17.75 68.2422 17.5625C68.0859 15.3906 67.75 13.7891 67.2344 12.7578C66.7344 11.7266 66.0547 11.2109 65.1953 11.2109C63.9922 11.2109 63.0547 12.0078 62.3828 13.6016C61.7266 15.1953 61.3984 17.5625 61.3984 20.7031V20.7969ZM76.375 31.9062L76.6562 31.7891C77.1406 31.5703 77.4844 31.25 77.6875 30.8281C77.8906 30.3906 77.9766 29.8906 77.9453 29.3281C77.8047 28 77.6094 26.7422 77.3594 25.5547C77.1094 24.3516 76.8516 23.125 76.5859 21.875C76.3047 20.4219 75.9922 18.9375 75.6484 17.4219C75.3203 15.8906 74.9375 14.25 74.5 12.5C74.3281 11.7969 74.0469 11.1797 73.6562 10.6484C73.2812 10.1172 72.7344 9.74219 72.0156 9.52344L71.9922 9.42969H79.375L79.3984 9.52344C78.7578 9.74219 78.3125 10.1016 78.0625 10.6016C77.8281 11.1016 77.75 11.7031 77.8281 12.4062C78.0469 13.9844 78.3281 15.5547 78.6719 17.1172C79.0156 18.6641 79.3438 20.2422 79.6562 21.8516C79.7812 22.5547 79.9141 23.3047 80.0547 24.1016C80.2109 24.8828 80.3672 25.7109 80.5234 26.5859C80.6797 25.7266 80.8281 24.8984 80.9688 24.1016C81.125 23.3047 81.2656 22.5547 81.3906 21.8516C81.7031 20.2422 81.9844 18.6641 82.2344 17.1172C82.5 15.5547 82.7422 13.9844 82.9609 12.4062C83.0391 11.7031 82.9531 11.1016 82.7031 10.6016C82.4688 10.1016 82.0312 9.74219 81.3906 9.52344L81.4141 9.42969H88.9141V9.52344C88.1797 9.75781 87.625 10.1406 87.25 10.6719C86.875 11.1875 86.6016 11.7969 86.4297 12.5C85.9922 14.25 85.6016 15.8906 85.2578 17.4219C84.9141 18.9375 84.6094 20.4219 84.3438 21.875C84.0625 23.125 83.7969 24.3516 83.5469 25.5547C83.2969 26.7422 83.1016 28 82.9609 29.3281C82.9141 29.8906 82.9922 30.3906 83.1953 30.8281C83.3984 31.25 83.7422 31.5703 84.2266 31.7891L84.5547 31.9062L84.5781 32H76.3516L76.375 31.9062Z" fill="#E3456B"/>
<path d="M6.02734 50.3223C5.89844 51.998 5.82812 53.8203 5.81641 55.7891C5.81641 57.7461 5.81641 59.8086 5.81641 61.9766V64.666C6.09766 64.127 6.39648 63.5469 6.71289 62.9258C6.98242 62.3984 7.28711 61.8008 7.62695 61.1328C7.9668 60.4531 8.31836 59.7559 8.68164 59.041C8.97461 58.4668 9.27344 57.9453 9.57812 57.4766C9.88281 56.9961 10.2227 56.5859 10.5977 56.2461C10.9844 55.8945 11.4121 55.6191 11.8809 55.4199C12.3496 55.2207 12.8887 55.1094 13.498 55.0859L14.5176 58.7598L14.4121 58.8652C14.1426 58.584 13.8613 58.4082 13.5684 58.3379C13.2871 58.2676 13.0527 58.2324 12.8652 58.2324C12.5254 58.2324 12.2148 58.3613 11.9336 58.6191C11.6641 58.8652 11.3945 59.2109 11.125 59.6562C10.832 60.1367 10.5273 60.6348 10.2109 61.1504C9.89453 61.666 9.60156 62.1406 9.33203 62.5742C9.01562 63.0781 8.70508 63.5762 8.40039 64.0684L11.916 70.0098C12.2441 70.5723 12.543 71 12.8125 71.293C13.082 71.5859 13.4043 71.7324 13.7793 71.7324C14.1074 71.7324 14.5293 71.5918 15.0449 71.3105L15.1504 71.3984L13.5508 75.0547C12.9531 74.9492 12.4609 74.7676 12.0742 74.5098C11.6992 74.252 11.3711 73.9414 11.0898 73.5781C10.8203 73.2031 10.5684 72.7812 10.334 72.3125C10.1113 71.832 9.8418 71.3164 9.52539 70.7656L7.0293 65.9668L5.85156 67.9883C5.86328 68.5039 5.875 69.0723 5.88672 69.6934C5.91016 70.3145 5.93945 70.877 5.97461 71.3809C6.02148 72.0137 6.18555 72.5469 6.4668 72.9805C6.74805 73.4023 7.1875 73.7129 7.78516 73.9121V74H1.43945V73.9121C2.03711 73.7129 2.46484 73.3848 2.72266 72.9277C2.98047 72.4707 3.13281 71.9316 3.17969 71.3105C3.26172 69.4238 3.32617 67.6719 3.37305 66.0547C3.43164 64.4375 3.46094 62.8613 3.46094 61.3262C3.46094 59.8262 3.45508 58.5547 3.44336 57.5117C3.44336 56.457 3.41992 55.5781 3.37305 54.875C3.32617 54.1719 3.25 53.6152 3.14453 53.2051C3.05078 52.7949 2.9043 52.4902 2.70508 52.291C2.51758 52.0801 2.27734 51.9512 1.98438 51.9043C1.69141 51.8457 1.33398 51.8164 0.912109 51.8164V51.7285L6.02734 50.3223ZM27.8066 65.7031C27.8066 67.1914 27.8184 68.4102 27.8418 69.3594C27.8652 70.2969 27.9531 71.041 28.1055 71.5918C28.2578 72.1309 28.5039 72.5059 28.8438 72.7168C29.1836 72.916 29.6758 73.0156 30.3203 73.0156V73.1035L25.5566 74.5098C25.6504 74.1934 25.7031 73.8301 25.7148 73.4199C25.7266 72.998 25.7324 72.5645 25.7324 72.1191C25.416 72.6113 25.0703 73.0156 24.6953 73.332C24.332 73.6367 23.957 73.877 23.5703 74.0527C23.1836 74.2285 22.7969 74.3457 22.4102 74.4043C22.0352 74.4746 21.6895 74.5098 21.373 74.5098C20.2012 74.5098 19.2812 73.8594 18.6133 72.5586C17.957 71.2578 17.6289 69.3301 17.6289 66.7754C17.6289 65.1816 17.6172 63.875 17.5938 62.8555C17.582 61.8242 17.5 61.0156 17.3477 60.4297C17.1953 59.8438 16.9492 59.4395 16.6094 59.2168C16.2812 58.9824 15.7949 58.8652 15.1504 58.8652V58.7773L20.793 56.668C20.6992 56.8203 20.6172 56.9844 20.5469 57.1602C20.4883 57.3359 20.4355 57.5527 20.3887 57.8105C20.3418 58.0684 20.3008 58.373 20.2656 58.7246C20.2422 59.0762 20.2246 59.5098 20.2129 60.0254C20.2012 60.541 20.1895 61.1445 20.1777 61.8359C20.1777 62.5273 20.1777 63.3359 20.1777 64.2617C20.1777 65.5156 20.1895 66.6582 20.2129 67.6895C20.248 68.709 20.3242 69.5879 20.4414 70.3262C20.5703 71.0527 20.7637 71.6211 21.0215 72.0312C21.2793 72.4297 21.6367 72.6289 22.0938 72.6289C22.5156 72.6289 22.9199 72.5117 23.3066 72.2773C23.6934 72.043 24.0332 71.6855 24.3262 71.2051C24.6191 70.7129 24.8535 70.1035 25.0293 69.377C25.2051 68.6387 25.293 67.7715 25.293 66.7754C25.293 65.1816 25.2812 63.875 25.2578 62.8555C25.2461 61.8242 25.1641 61.0156 25.0117 60.4297C24.8594 59.8438 24.6133 59.4395 24.2734 59.2168C23.9453 58.9824 23.459 58.8652 22.8145 58.8652V58.7773L28.457 56.668C28.3633 56.8438 28.2812 57.0312 28.2109 57.2305C28.1406 57.4297 28.082 57.6816 28.0352 57.9863C27.9883 58.2793 27.9473 58.6367 27.9121 59.0586C27.8887 59.4805 27.8652 60.002 27.8418 60.623C27.8301 61.2324 27.8184 61.9531 27.8066 62.7852C27.8066 63.6172 27.8066 64.5898 27.8066 65.7031ZM42.6953 62.8027C42.7422 63.4941 42.7773 64.2207 42.8008 64.9824C42.8242 65.7441 42.8418 66.5176 42.8535 67.3027C42.8652 68.0762 42.8711 68.8555 42.8711 69.6406C42.8711 70.4258 42.8711 71.1934 42.8711 71.9434C42.8828 72.248 42.9238 72.5059 42.9941 72.7168C43.0645 72.9277 43.1582 73.1094 43.2754 73.2617C43.3926 73.4023 43.5391 73.5254 43.7148 73.6309C43.8906 73.7363 44.0957 73.8301 44.3301 73.9121V74H39.0215V73.9121C39.4316 73.7246 39.7305 73.4902 39.918 73.209C40.1055 72.916 40.2109 72.4707 40.2344 71.873C40.2461 71.3926 40.2578 70.9121 40.2695 70.4316C40.293 69.9395 40.3047 69.4707 40.3047 69.0254C40.3164 68.5801 40.3223 68.1699 40.3223 67.7949C40.334 67.4082 40.3398 67.0801 40.3398 66.8105C40.3398 65.5684 40.3223 64.4316 40.2871 63.4004C40.2637 62.3691 40.1875 61.4902 40.0586 60.7637C39.9414 60.0254 39.7539 59.457 39.4961 59.0586C39.2383 58.6484 38.8809 58.4434 38.4238 58.4434C38.002 58.4434 37.5977 58.5547 37.2109 58.7773C36.8242 59 36.4844 59.3164 36.1914 59.7266C35.9102 60.125 35.6816 60.6055 35.5059 61.168C35.3418 61.7305 35.2598 62.3516 35.2598 63.0312V64.6133C35.2598 65.1758 35.2598 65.7734 35.2598 66.4062C35.2715 67.0273 35.2832 67.6543 35.2949 68.2871C35.3066 68.9199 35.3184 69.5469 35.3301 70.168C35.3535 70.7891 35.3828 71.3809 35.418 71.9434C35.4414 72.248 35.4883 72.5059 35.5586 72.7168C35.6406 72.9277 35.7461 73.1094 35.875 73.2617C36.0039 73.4023 36.1621 73.5254 36.3496 73.6309C36.5488 73.7363 36.7832 73.8301 37.0527 73.9121V74H30.9883V73.9121C31.5859 73.7246 32.0137 73.4902 32.2715 73.209C32.541 72.916 32.6934 72.4707 32.7285 71.873C32.752 71.3105 32.7754 70.7305 32.7988 70.1328C32.8223 69.5234 32.8398 68.9258 32.8516 68.3398C32.875 67.7422 32.8926 67.1621 32.9043 66.5996C32.916 66.0371 32.9219 65.5098 32.9219 65.0176C32.9219 63.8105 32.9102 62.8086 32.8867 62.0117C32.8633 61.2031 32.7812 60.5586 32.6406 60.0781C32.5117 59.5977 32.2949 59.2578 31.9902 59.0586C31.6973 58.8594 31.2754 58.7598 30.7246 58.7598V58.6719L35.4883 56.5625C35.3945 56.832 35.3418 57.1484 35.3301 57.5117C35.3184 57.8633 35.3125 58.2266 35.3125 58.6016C35.5469 58.1797 35.8047 57.8398 36.0859 57.582C36.3672 57.3125 36.6543 57.1074 36.9473 56.9668C37.2402 56.8145 37.5273 56.709 37.8086 56.6504C38.1016 56.5918 38.3711 56.5625 38.6172 56.5625C39.3672 56.5625 40.0234 56.7793 40.5859 57.2129C41.1602 57.6465 41.6172 58.2852 41.957 59.1289C42.2266 58.6133 42.5195 58.1914 42.8359 57.8633C43.1641 57.5234 43.4922 57.2598 43.8203 57.0723C44.1602 56.873 44.4883 56.7383 44.8047 56.668C45.1328 56.5977 45.4316 56.5625 45.7012 56.5625C47.0723 56.5625 48.1562 57.1602 48.9531 58.3555C49.75 59.5508 50.1484 61.2969 50.1484 63.5938C50.1484 64.3438 50.1484 65.0645 50.1484 65.7559C50.1484 66.4473 50.1543 67.1328 50.166 67.8125C50.1777 68.4922 50.1953 69.1719 50.2188 69.8516C50.2422 70.5312 50.2715 71.2285 50.3066 71.9434C50.3301 72.248 50.3828 72.5059 50.4648 72.7168C50.5469 72.9277 50.6641 73.1094 50.8164 73.2617C50.9688 73.4023 51.1504 73.5254 51.3613 73.6309C51.5723 73.7363 51.8242 73.8301 52.1172 73.9121V74H46.2812V73.9121C46.75 73.7246 47.0898 73.4902 47.3008 73.209C47.5234 72.916 47.6465 72.4707 47.6699 71.873C47.6816 71.3926 47.6934 70.9121 47.7051 70.4316C47.7285 69.9395 47.7402 69.4707 47.7402 69.0254C47.752 68.5801 47.7578 68.1699 47.7578 67.7949C47.7695 67.4082 47.7754 67.0801 47.7754 66.8105C47.7754 65.5684 47.7578 64.4316 47.7227 63.4004C47.6992 62.3691 47.6172 61.4902 47.4766 60.7637C47.3359 60.0254 47.125 59.457 46.8438 59.0586C46.5625 58.6484 46.1758 58.4434 45.6836 58.4434C45.2969 58.4434 44.9219 58.5488 44.5586 58.7598C44.207 58.9707 43.8965 59.2695 43.627 59.6562C43.3574 60.043 43.1348 60.5059 42.959 61.0449C42.7949 61.5723 42.707 62.1582 42.6953 62.8027ZM56.3887 72.6465C56.5996 72.6465 56.793 72.5938 56.9688 72.4883C57.1562 72.3828 57.3203 72.2422 57.4609 72.0664C57.6016 71.8906 57.707 71.6973 57.7773 71.4863C57.8594 71.2637 57.9004 71.041 57.9004 70.8184C57.9004 70.3848 57.7832 69.9219 57.5488 69.4297C57.3145 68.9258 57.0215 68.4043 56.6699 67.8652C56.3301 67.3262 55.9551 66.7637 55.5449 66.1777C55.1348 65.5918 54.7539 64.9883 54.4023 64.3672C54.0625 63.7344 53.7754 63.0898 53.541 62.4336C53.3066 61.7656 53.1895 61.0859 53.1895 60.3945C53.1895 59.8438 53.3066 59.334 53.541 58.8652C53.7871 58.3965 54.1035 57.9922 54.4902 57.6523C54.8887 57.3125 55.3398 57.0488 55.8438 56.8613C56.3594 56.6621 56.8867 56.5625 57.4258 56.5625C58.0234 56.5625 58.6094 56.6914 59.1836 56.9492C59.7695 57.207 60.291 57.6289 60.748 58.2148L58.8672 61.0098L58.8145 60.9746C58.8848 60.7871 58.9199 60.582 58.9199 60.3594C58.9199 60.1367 58.8848 59.9082 58.8145 59.6738C58.7441 59.4395 58.6387 59.2285 58.498 59.041C58.3691 58.8535 58.2109 58.7012 58.0234 58.584C57.8477 58.4668 57.6484 58.4082 57.4258 58.4082C57.1797 58.4082 56.9395 58.4551 56.7051 58.5488C56.4824 58.6309 56.2832 58.7539 56.1074 58.918C55.9434 59.0703 55.8086 59.2637 55.7031 59.498C55.5977 59.7207 55.5449 59.9668 55.5449 60.2363C55.5449 60.6699 55.6621 61.1504 55.8965 61.6777C56.1426 62.1934 56.4473 62.7441 56.8105 63.3301C57.1738 63.9043 57.5605 64.5078 57.9707 65.1406C58.3926 65.7617 58.7852 66.3945 59.1484 67.0391C59.5117 67.6719 59.8105 68.3047 60.0449 68.9375C60.291 69.5586 60.4141 70.1621 60.4141 70.748C60.4141 71.3105 60.3027 71.8262 60.0801 72.2949C59.8691 72.752 59.582 73.1445 59.2188 73.4727C58.8555 73.8008 58.4395 74.0527 57.9707 74.2285C57.502 74.416 57.0156 74.5098 56.5117 74.5098C55.8438 74.5098 55.1875 74.3398 54.543 74C53.8984 73.6484 53.3535 73.0801 52.9082 72.2949L54.7891 70.0273L54.8418 70.0801C54.7363 70.2559 54.6836 70.4668 54.6836 70.7129C54.6836 70.9355 54.7246 71.1641 54.8066 71.3984C54.9004 71.6211 55.0176 71.8262 55.1582 72.0137C55.3105 72.2012 55.4922 72.3535 55.7031 72.4707C55.9141 72.5879 56.1426 72.6465 56.3887 72.6465ZM71.1191 66.459C71.1191 65.2168 71.1074 63.9746 71.084 62.7324C71.0605 61.4785 71.0195 60.2305 70.9609 58.9883C70.9258 58.543 70.791 58.168 70.5566 57.8633C70.334 57.5469 69.9824 57.3125 69.502 57.1602V57.0723H75.7422V57.1602C75.1445 57.2891 74.7109 57.5293 74.4414 57.8809C74.1836 58.2207 74.0371 58.6133 74.002 59.0586C73.9434 60.3594 73.8965 61.5781 73.8613 62.7148C73.8262 63.8516 73.8086 64.9648 73.8086 66.0547C73.8086 66.9922 73.8086 67.7891 73.8086 68.4453C73.8086 69.1016 73.8027 69.7168 73.791 70.291C73.791 70.8535 73.791 71.4219 73.791 71.9961C73.791 72.5703 73.791 73.2324 73.791 73.9824C73.791 75.5996 73.6621 76.9473 73.4043 78.0254C73.1465 79.1035 72.7949 79.9707 72.3496 80.627C71.9043 81.2832 71.377 81.7461 70.7676 82.0156C70.1699 82.2969 69.5254 82.4375 68.834 82.4375C68.3418 82.4375 67.8086 82.3496 67.2344 82.1738C66.6719 82.0098 66.1445 81.7344 65.6523 81.3477C65.1719 80.9727 64.7676 80.4805 64.4395 79.8711C64.123 79.2617 63.9648 78.5234 63.9648 77.6562C63.9648 77.4922 63.9707 77.3281 63.9824 77.1641C64.0059 77 64.0293 76.8242 64.0527 76.6367L68.4297 75.7578L68.4473 75.8457C67.7676 76.1855 67.2637 76.5781 66.9355 77.0234C66.6191 77.4688 66.4609 77.9316 66.4609 78.4121C66.4609 78.6348 66.4961 78.8633 66.5664 79.0977C66.6484 79.3438 66.7715 79.5664 66.9355 79.7656C67.1113 79.9648 67.334 80.1289 67.6035 80.2578C67.873 80.3867 68.2012 80.4512 68.5879 80.4512C68.7988 80.4512 69.0039 80.4336 69.2031 80.3984C69.4141 80.3633 69.6133 80.2754 69.8008 80.1348C69.9883 79.9941 70.1582 79.7715 70.3105 79.4668C70.4629 79.1738 70.5918 78.7637 70.6973 78.2363C70.8145 77.7207 70.9023 77.0645 70.9609 76.2676C71.0312 75.4707 71.0664 74.5039 71.0664 73.3672C70.2227 73.9883 69.4023 74.2988 68.6055 74.2988C67.8555 74.2988 67.1641 74.1641 66.5312 73.8945C65.8984 73.6133 65.3535 73.2148 64.8965 72.6992C64.4395 72.1719 64.082 71.5273 63.8242 70.7656C63.5781 70.0039 63.4551 69.1309 63.4551 68.1465C63.4551 67.4082 63.4551 66.7754 63.4551 66.248C63.4551 65.709 63.4551 65.2227 63.4551 64.7891C63.4668 64.3438 63.4668 63.9277 63.4551 63.541C63.4551 63.1543 63.4492 62.7441 63.4375 62.3105C63.4375 61.877 63.4258 61.3965 63.4023 60.8691C63.3906 60.3418 63.373 59.7148 63.3496 58.9883C63.3145 58.543 63.168 58.168 62.9102 57.8633C62.6523 57.5469 62.2539 57.3125 61.7148 57.1602V57.0723H67.7266V57.1602C67.1875 57.2891 66.7949 57.5293 66.5488 57.8809C66.3145 58.2207 66.1855 58.6133 66.1621 59.0586C66.1387 59.8906 66.1211 60.7109 66.1094 61.5195C66.0977 62.3281 66.0918 63.0957 66.0918 63.8223C66.0918 64.5488 66.0918 65.2227 66.0918 65.8438C66.0918 66.4648 66.0918 66.998 66.0918 67.4434C66.0918 69.1426 66.3379 70.4316 66.8301 71.3105C67.3223 72.1777 68.0664 72.6113 69.0625 72.6113C69.332 72.6113 69.6367 72.5586 69.9766 72.4531C70.3281 72.3359 70.6973 72.1426 71.084 71.873V71.627L71.1191 66.459Z" fill="#623207"/>
</svg>
